<?xml version="1.0" encoding="UTF-8" standalone="no"?>
<!-- Generator: Adobe Illustrator 22.1.0, SVG Export Plug-In . SVG Version: 6.00 Build 0)  -->

<svg
   xmlns:dc="http://purl.org/dc/elements/1.1/"
   xmlns:cc="http://creativecommons.org/ns#"
   xmlns:rdf="http://www.w3.org/1999/02/22-rdf-syntax-ns#"
   xmlns:svg="http://www.w3.org/2000/svg"
   xmlns="http://www.w3.org/2000/svg"
   xmlns:sodipodi="http://sodipodi.sourceforge.net/DTD/sodipodi-0.dtd"
   xmlns:inkscape="http://www.inkscape.org/namespaces/inkscape"
   version="1.1"
   id="Слой_1"
   x="0px"
   y="0px"
   viewBox="0 0 1242 2436"
   xml:space="preserve"
   sodipodi:docname="logo.svg"
   width="1242"
   height="2436"
   inkscape:version="0.92.2 5c3e80d, 2017-08-06"><metadata
     id="metadata85"><rdf:RDF><cc:Work
         rdf:about=""><dc:format>image/svg+xml</dc:format><dc:type
           rdf:resource="http://purl.org/dc/dcmitype/StillImage" /><dc:title></dc:title></cc:Work></rdf:RDF></metadata><defs
     id="defs83" /><sodipodi:namedview
     pagecolor="#ffffff"
     bordercolor="#666666"
     borderopacity="1"
     objecttolerance="10"
     gridtolerance="10"
     guidetolerance="10"
     inkscape:pageopacity="0"
     inkscape:pageshadow="2"
     inkscape:window-width="1280"
     inkscape:window-height="755"
     id="namedview81"
     showgrid="false"
     inkscape:zoom="0.236"
     inkscape:cx="665.25424"
     inkscape:cy="1490.012"
     inkscape:window-x="0"
     inkscape:window-y="1"
     inkscape:window-maximized="1"
     inkscape:current-layer="Слой_1" /><style
     type="text/css"
     id="style2">
	.st0{fill:#57989E;}
	.st1{fill:#902876;}
	.st2{fill:#6EAA52;}
	.st3{fill:#BC4045;}
	.st4{fill:#E0A93D;}
	.st5{fill:#2C6094;}
	.st6{fill:none;stroke:#232020;stroke-width:4;stroke-miterlimit:10;}
	.st7{opacity:0.9;fill:#DDA150;}
	.st8{display:none;fill:#82807D;}
	.st9{opacity:0.9;fill:#C12A34;}
	.st10{opacity:0.9;fill:#2D5B8A;}
	.st11{opacity:0.9;fill:#EDE44C;}
	.st12{opacity:0.9;fill:#6EAA52;}
	.st13{opacity:0.9;fill:#592F76;}
	.st14{fill:none;stroke:#232020;stroke-width:5;stroke-linecap:round;stroke-linejoin:round;}
</style><text
     xml:space="preserve"
     style="font-style:normal;font-weight:normal;font-size:167.61978149px;line-height:125%;font-family:Sans;letter-spacing:0px;word-spacing:0px;fill:#000000;fill-opacity:1;stroke:none;stroke-width:2.32805252px;stroke-linecap:butt;stroke-linejoin:miter;stroke-opacity:1"
     x="84.03466"
     y="1490.9553"
     id="text89"><tspan
       sodipodi:role="line"
       id="tspan87"
       x="84.03466"
       y="1490.9553"
       style="font-style:normal;font-variant:normal;font-weight:normal;font-stretch:normal;font-size:198.66049194px;line-height:132.00000525%;font-family:Courier;-inkscape-font-specification:'Courier, Normal';font-variant-ligatures:normal;font-variant-caps:normal;font-variant-numeric:normal;font-feature-settings:normal;text-align:start;writing-mode:lr-tb;text-anchor:start;stroke-width:2.32805252px">insoil.io</tspan></text>
<g
     id="g129"
     transform="translate(4.2372881,-59.322034)"><polygon
       transform="matrix(0.66512623,0,0,0.66512623,282.0361,685.22194)"
       style="fill:#57989e"
       id="polygon4"
       points="333,601.6 584,748.5 574.2,970.8 260,953.3 116.1,702.6 "
       class="st0" /><polygon
       transform="matrix(0.66512623,0,0,0.66512623,282.0361,685.22194)"
       style="fill:#902876"
       id="polygon6"
       points="21,433.6 210.8,179.1 382.6,309.6 329.1,601.1 116.1,702.6 "
       class="st1" /><polygon
       transform="matrix(0.66512623,0,0,0.66512623,282.0361,685.22194)"
       style="fill:#6eaa52"
       id="polygon8"
       points="434,31 752.5,107.8 679.6,274.7 382.8,309.9 210.8,179.1 "
       class="st2" /><polygon
       transform="matrix(0.66512623,0,0,0.66512623,282.0361,685.22194)"
       style="fill:#bc4045"
       id="polygon10"
       points="980.7,614.7 805.2,550.4 681.3,276.2 752.5,107.8 959.3,322.2 "
       class="st3" /><polygon
       transform="matrix(0.66512623,0,0,0.66512623,282.0361,685.22194)"
       style="fill:#e0a93d"
       id="polygon12"
       points="382.8,309.9 679.6,274.7 805.2,550.4 584,748.5 329.1,601.1 "
       class="st4" /><polygon
       transform="matrix(0.66512623,0,0,0.66512623,282.0361,685.22194)"
       style="fill:#2c6094"
       id="polygon14"
       points="584,748.5 805.2,550.4 980.7,614.7 832.5,907.6 574.2,970.8 "
       class="st5" /><g
       id="g48"
       transform="matrix(0.32606482,0,0,0.32606482,251.19154,640.42894)"><path
         style="fill:none;stroke:#232020;stroke-width:4;stroke-miterlimit:10"
         inkscape:connector-curvature="0"
         id="path16"
         d="M 1648.4,1062.6 1602.8,958.3"
         class="st6" /><path
         style="fill:none;stroke:#232020;stroke-width:4;stroke-miterlimit:10"
         inkscape:connector-curvature="0"
         id="path18"
         d="M 524.5,502.7 773.1,694.3"
         class="st6" /><path
         style="fill:none;stroke:#232020;stroke-width:4;stroke-miterlimit:10"
         inkscape:connector-curvature="0"
         id="path20"
         d="m 775.4,695 100.1,74.6"
         class="st6" /><path
         style="fill:none;stroke:#232020;stroke-width:4;stroke-miterlimit:10"
         inkscape:connector-curvature="0"
         id="path22"
         d="M 766,1363.6 875,769.1"
         class="st6" /><path
         style="fill:none;stroke:#232020;stroke-width:4;stroke-miterlimit:10"
         inkscape:connector-curvature="0"
         id="path24"
         d="M 1205.7,726.9 878.3,768.6"
         class="st6" /><path
         style="fill:none;stroke:#232020;stroke-width:4;stroke-miterlimit:10"
         inkscape:connector-curvature="0"
         id="path26"
         d="M 770.9,1364.6 1285.5,1665"
         class="st6" /><path
         style="fill:none;stroke:#232020;stroke-width:4;stroke-miterlimit:10"
         inkscape:connector-curvature="0"
         id="path28"
         d="m 1274.2,1846.9 12.2,-179.3"
         class="st6" /><polyline
         style="fill:none;stroke:#232020;stroke-width:4;stroke-miterlimit:10"
         id="polyline30"
         points="1561.3,1422 1285.8,1664.1 1265.8,2117.6  "
         class="st6" /><path
         style="fill:none;stroke:#232020;stroke-width:4;stroke-miterlimit:10"
         inkscape:connector-curvature="0"
         id="path32"
         d="M 479.9,1496.5 769.4,1360.6"
         class="st6" /><path
         style="fill:none;stroke:#232020;stroke-width:4;stroke-miterlimit:10"
         inkscape:connector-curvature="0"
         id="path34"
         d="m 1262.8,2112.8 11.4,-265.9"
         class="st6" /><path
         style="fill:none;stroke:#232020;stroke-width:4;stroke-miterlimit:10"
         inkscape:connector-curvature="0"
         id="path36"
         d="M 1629.6,357.3 1480.9,697.7"
         class="st6" /><path
         style="fill:none;stroke:#232020;stroke-width:4;stroke-miterlimit:10"
         inkscape:connector-curvature="0"
         id="path38"
         d="m 1603.3,959.2 -122.4,-264"
         class="st6" /><path
         style="fill:none;stroke:#232020;stroke-width:4;stroke-miterlimit:10"
         inkscape:connector-curvature="0"
         id="path40"
         d="m 1197.9,727.5 283,-32.3"
         class="st6" /><path
         style="fill:none;stroke:#232020;stroke-width:4;stroke-miterlimit:10"
         inkscape:connector-curvature="0"
         id="path42"
         d="m 1738.6,1260.1 -161.4,149"
         class="st6" /><path
         style="fill:none;stroke:#232020;stroke-width:4;stroke-miterlimit:10"
         inkscape:connector-curvature="0"
         id="path44"
         d="m 1738.6,1260.1 353.4,130 -355,-130 -88.5,-201.5"
         class="st6" /><path
         style="fill:none;stroke:#232020;stroke-width:4;stroke-miterlimit:10"
         inkscape:connector-curvature="0"
         id="path46"
         d="m 331.5,1566.8 145.2,-68.6"
         class="st6" /></g><polygon
       transform="matrix(0.66512623,0,0,0.66512623,282.0361,685.22194)"
       style="opacity:0.9;fill:#dda150"
       id="polygon50"
       points="396.6,209.4 766.8,418.3 682.3,828.6 276.3,864.2 107.6,488.4 "
       class="st7" /><g
       id="g64"
       transform="matrix(0.32606482,0,0,0.32606482,251.19154,678.32194)"><path
         style="display:none;fill:#82807d"
         inkscape:connector-curvature="0"
         id="path52"
         d="M 1654.5,877.5 1478,1711.5 651.4,1787.7 306.8,1026.5 903.7,448 Z"
         class="st8" /><path
         style="opacity:0.9;fill:#c12a34"
         inkscape:connector-curvature="0"
         id="path54"
         d="M 979.4,84.7 520,386.4 138.1,905 306.8,1026.9 903.7,448.3 Z"
         class="st9" /><path
         style="opacity:0.9;fill:#2d5b8a"
         inkscape:connector-curvature="0"
         id="path56"
         d="M 1654.3,877.9 2049.5,679 1625.8,239.6 979.4,84.7 l -75.8,363.6 755.1,426 z"
         class="st10" /><path
         style="opacity:0.9;fill:#ede44c"
         inkscape:connector-curvature="0"
         id="path58"
         d="m 1654.2,878.1 -166.1,835.8 306.8,154.9 300.2,-591.7 -44.5,-598 z"
         class="st11" /><path
         style="opacity:0.9;fill:#6eaa52"
         inkscape:connector-curvature="0"
         id="path60"
         d="m 1794.9,1868.6 -316.9,-157 -826.6,76.2 -25.1,174.7 639.5,39 z"
         class="st12" /><path
         style="opacity:0.9;fill:#592f76"
         inkscape:connector-curvature="0"
         id="path62"
         d="M 331.8,1455.3 626.3,1962.6 658.2,1784 306.7,1026.6 137.8,904.9 Z"
         class="st13" /></g><g
       id="g78"
       transform="matrix(0.32606482,0,0,0.32606482,251.47688,901.44112)"><path
         style="fill:none;stroke:#232020;stroke-width:5;stroke-linecap:round;stroke-linejoin:round"
         inkscape:connector-curvature="0"
         id="path66"
         d="M 1487.3,1029.6 1660.1,189 2050.5,-6 l 43.8,596.8 -302.5,597.4 z"
         class="st14" /><path
         style="fill:none;stroke:#232020;stroke-width:5;stroke-linecap:round;stroke-linejoin:round"
         inkscape:connector-curvature="0"
         id="path68"
         d="M 909.4,-235.3 979,-599.9 523.4,-299.7 136.5,221.5 310,340.3 Z"
         class="st14" /><path
         style="fill:none;stroke:#232020;stroke-width:5;stroke-linecap:round;stroke-linejoin:round"
         inkscape:connector-curvature="0"
         id="path70"
         d="M 909.3,-235.3 1658,190 2050.6,-6 1626.4,-445.7 979.6,-600.2 Z"
         class="st14" /><path
         style="fill:none;stroke:#232020;stroke-width:5;stroke-linecap:round;stroke-linejoin:round"
         inkscape:connector-curvature="0"
         id="path72"
         d="M 655.9,1096.4 624,1281.4 330.6,770.1 136.9,222 l 173,118.5 z"
         class="st14" /><path
         style="fill:none;stroke:#232020;stroke-width:5;stroke-linecap:round;stroke-linejoin:round"
         inkscape:connector-curvature="0"
         id="path74"
         d="m 1481.8,1027.1 -826.8,73.1 -31,181.5 641,35.4 526.9,-128.9 z"
         class="st14" /><path
         style="fill:none;stroke:#232020;stroke-width:5;stroke-linecap:round;stroke-linejoin:round"
         inkscape:connector-curvature="0"
         id="path76"
         d="M 909,-235.3 1659.8,190.9 1487.9,1027 657.4,1099.7 310,340.4 Z"
         class="st14" /></g></g></svg>