<svg width="2091" height="360" viewBox="0 0 2091 360" fill="none" xmlns="http://www.w3.org/2000/svg">
<path d="M123.921 201.279L137.682 215.536L155.499 206.92L146.154 224.409L159.864 238.667L140.352 235.179L131.007 252.617L128.285 233.025L108.825 229.538L126.642 220.87L123.921 201.279Z" fill="#E50000"/>
<path d="M220.733 279.55C191.334 291.494 159.762 289.47 133.328 276.688C110.254 265.485 91.0829 246.09 80.6576 220.476C68.2065 189.878 70.924 156.862 85.2526 129.768C96.6662 108.201 115.442 90.4343 139.8 80.5145C169.149 68.6208 200.771 70.5948 227.205 83.4263L258.926 18.1339C253.293 15.4195 247.463 12.9519 241.583 10.8298L222.413 31.6069C215.1 29.4354 207.689 27.8068 200.08 26.7211L190.89 0.31785C184.664 -0.0769646 178.389 -0.0769645 172.114 0.169794L162.677 25.9314C154.92 26.7211 147.113 28.1523 139.356 30.1757L121.223 9.94145C118.258 10.9778 115.343 12.0636 112.428 13.248C109.513 14.4325 106.647 15.7156 103.781 16.9988L104.918 43.7474C97.7038 47.6462 90.8853 52.0879 84.5115 56.9244L60.548 45.3761C55.8542 49.571 51.3579 53.9633 47.2076 58.553L58.3246 82.4393C53.1367 88.855 48.4922 95.6655 44.4406 102.822L18.1549 101.341C15.4374 106.967 12.967 112.791 10.8424 118.663L30.2108 136.479C27.938 144.376 26.2581 152.42 25.2699 160.613L0.31822 169.397C-0.0770541 175.615 -0.0770541 181.883 0.169992 188.151L25.171 197.281C26.1098 205.227 27.6909 213.222 29.9143 221.118L9.95301 238.983C10.9906 241.944 12.0776 244.856 13.2634 247.768C14.4493 250.68 15.7339 253.542 17.0185 256.404L44.1442 255.269C48.0969 262.228 52.4943 268.792 57.3859 274.911L45.4782 299.637C49.678 304.325 54.0754 308.816 58.6705 312.962L84.0174 301.166C90.0453 305.855 96.4685 310.05 103.089 313.702L101.508 341.931C107.141 344.695 112.971 347.113 118.851 349.235L138.368 328.014C145.433 329.889 152.597 331.32 159.91 332.209L169.545 359.698C175.77 360.043 182.045 360.093 188.32 359.846L198.499 332.011C205.416 331.074 212.333 329.692 219.201 327.816L239.162 350.123C242.127 349.087 245.042 348.001 247.957 346.817C250.872 345.632 253.738 344.349 256.604 343.066L255.369 312.764C261.347 309.31 267.029 305.509 272.415 301.413L299.886 314.64C304.58 310.445 309.027 306.052 313.227 301.463L300.282 273.628C304.382 268.298 308.138 262.721 311.547 256.947L342.279 258.625C344.997 252.999 347.467 247.176 349.592 241.303L282.494 213.024C273.156 242.191 251.366 267.114 220.733 279.55Z" fill="#E50000"/>
<path fill-rule="evenodd" clip-rule="evenodd" d="M230.516 113.616L388.279 45.2279L420 118.17L263.65 185.929C262.311 205.503 254.076 224.682 238.965 239.526C215.248 262.869 181.008 269.088 151.708 258.28L196.423 213.518L180.662 178.971L146.075 163.327L101.903 207.546C91.6758 178.132 98.4942 144.228 122.161 120.884C151.937 91.6805 198.115 89.3069 230.516 113.616ZM261.149 125.967L274.095 155.776L388.279 106.276L375.334 76.4676L261.149 125.967ZM280.574 119.163L263.395 126.607L275.095 153.546L292.275 146.101L280.574 119.163ZM282.209 118.355L299.389 110.911L311.089 137.849L293.91 145.294L282.209 118.355ZM318.375 102.92L301.196 110.364L312.897 137.303L330.076 129.859L318.375 102.92ZM319.759 102.313L336.938 94.869L348.639 121.808L331.46 129.252L319.759 102.313Z" fill="#E50000"/>
<path d="M480 225V120H570V135H585V180H555V195H570V210H585V225H540V210H525V195H510V225H480ZM510 180H540V165H555V135H510V180ZM604.2 225V120H709.2V135H634.2V165H694.2V180H634.2V210H709.2V225H604.2ZM728.4 225V120H803.4V135H818.4V150H833.4V195H818.4V210H803.4V225H728.4ZM758.4 210H788.4V195H803.4V150H788.4V135H758.4V210ZM867.6 225V210H852.6V195H882.6V210H927.6V180H867.6V165H852.6V135H867.6V120H942.6V135H957.6V150H927.6V135H882.6V165H942.6V180H957.6V210H942.6V225H867.6ZM1081.8 135V195H1066.8V210H1051.8V225H991.8V210H976.8V135H991.8V120H1066.8V135H1081.8ZM1051.8 135H1006.8V210H1036.8V195H1021.8V180H1051.8V135ZM1066.8 225V210H1081.8V225H1066.8ZM1116 225V210H1101V120H1131V210H1176V120H1206V210H1191V225H1116ZM1225.2 225V150H1240.2V135H1255.2V120H1300.2V135H1315.2V150H1330.2V225H1300.2V195H1255.2V225H1225.2ZM1255.2 180H1300.2V150H1285.2V135H1270.2V150H1255.2V180ZM1349.4 225V120H1424.4V135H1439.4V150H1454.4V195H1439.4V210H1424.4V225H1349.4ZM1379.4 210H1409.4V195H1424.4V150H1409.4V135H1379.4V210ZM1503.6 225V195H1533.6V225H1503.6ZM1642.8 225V135H1612.8V120H1702.8V135H1672.8V225H1642.8ZM1722 225V120H1827V135H1752V165H1812V180H1752V210H1827V225H1722ZM1876.2 225V210H1861.2V195H1846.2V150H1861.2V135H1876.2V120H1936.2V135H1951.2V150H1921.2V135H1891.2V150H1876.2V195H1891.2V210H1921.2V195H1951.2V210H1936.2V225H1876.2ZM1970.4 225V120H2000.4V165H2045.4V120H2075.4V225H2045.4V180H2000.4V225H1970.4Z" fill="#E50000"/>
</svg>
